<svg xmlns="http://www.w3.org/2000/svg" viewBox="0 0 32 32" width="32" height="32" fill="none" stroke="currentColor" stroke-width="1.0" stroke-linecap="round" stroke-linejoin="round" role="img" aria-label="Decline">
<path transform="translate(-0.48 0.36)" d="M6.5 22C12.3 20 17.8 15.2 20.8 9.8C22 7.6 21.4 5.5 19.7 5.5C17.6 5.5 16.7 8.5 18.2 11.7C19.5 14.5 22.3 16.3 25.5 16.5"/>
<path transform="translate(-0.288 0.216)" d="M6.5 22C12.3 20 17.8 15.2 20.8 9.8C22 7.6 21.4 5.5 19.7 5.5C17.6 5.5 16.7 8.5 18.2 11.7C19.5 14.5 22.3 16.3 25.5 16.5"/>
<path transform="translate(-0.096 0.072)" d="M6.5 22C12.3 20 17.8 15.2 20.8 9.8C22 7.6 21.4 5.5 19.7 5.5C17.6 5.5 16.7 8.5 18.2 11.7C19.5 14.5 22.3 16.3 25.5 16.5"/>
<path transform="translate(0.096 -0.072)" d="M6.5 22C12.3 20 17.8 15.2 20.8 9.8C22 7.6 21.4 5.5 19.7 5.5C17.6 5.5 16.7 8.5 18.2 11.7C19.5 14.5 22.3 16.3 25.5 16.5"/>
<path transform="translate(0.288 -0.216)" d="M6.5 22C12.3 20 17.8 15.2 20.8 9.8C22 7.6 21.4 5.5 19.7 5.5C17.6 5.5 16.7 8.5 18.2 11.7C19.5 14.5 22.3 16.3 25.5 16.5"/>
<path transform="translate(0.48 -0.36)" d="M6.5 22C12.3 20 17.8 15.2 20.8 9.8C22 7.6 21.4 5.5 19.7 5.5C17.6 5.5 16.7 8.5 18.2 11.7C19.5 14.5 22.3 16.3 25.5 16.5"/>
</svg>
